<svg xmlns="http://www.w3.org/2000/svg" xmlns:xlink="http://www.w3.org/1999/xlink" width="1920" zoomAndPan="magnify" viewBox="0 0 1440 809.999993" height="1080" preserveAspectRatio="xMidYMid meet" version="1.0"><defs><g/><clipPath id="56297c28df"><path d="M 668 311.304688 L 748.875 311.304688 L 748.875 498.054688 L 668 498.054688 Z M 668 311.304688 " clip-rule="nonzero"/></clipPath><clipPath id="826790368f"><path d="M 590.625 311.304688 L 671 311.304688 L 671 498.054688 L 590.625 498.054688 Z M 590.625 311.304688 " clip-rule="nonzero"/></clipPath><clipPath id="5138c75a49"><path d="M 628 311.304688 L 711 311.304688 L 711 397 L 628 397 Z M 628 311.304688 " clip-rule="nonzero"/></clipPath></defs><g clip-path="url(#56297c28df)"><path fill="#37a1b2" d="M 699.609375 498.308594 C 704.050781 488.429688 706.523438 477.472656 706.523438 465.9375 C 706.523438 436.664062 689.175781 415.265625 669.6875 396.03125 C 684.28125 381.628906 700.074219 368.4375 710.683594 354.0625 C 696.191406 339.882812 680.699219 326.820312 670.375 312.566406 C 694.925781 346.460938 748.722656 373.59375 748.722656 425.144531 C 748.722656 458.203125 728.421875 486.515625 699.609375 498.308594 M 668.53125 313.214844 C 668.535156 313.214844 668.535156 313.210938 668.539062 313.207031 C 668.535156 313.210938 668.535156 313.210938 668.53125 313.214844 M 668.566406 313.167969 C 668.570312 313.167969 668.570312 313.164062 668.574219 313.160156 C 668.570312 313.164062 668.570312 313.167969 668.566406 313.167969 M 668.609375 313.113281 L 668.609375 313.113281 M 668.625 313.09375 C 668.625 313.089844 668.628906 313.082031 668.632812 313.078125 C 668.632812 313.082031 668.625 313.089844 668.625 313.09375 M 668.660156 313.046875 C 668.660156 313.039062 668.664062 313.039062 668.667969 313.035156 C 668.664062 313.035156 668.660156 313.039062 668.660156 313.046875 M 668.691406 313 C 668.695312 312.996094 668.699219 312.992188 668.699219 312.988281 C 668.699219 312.992188 668.695312 312.992188 668.691406 313 M 668.71875 312.964844 C 668.71875 312.960938 668.722656 312.957031 668.726562 312.953125 C 668.722656 312.957031 668.71875 312.960938 668.71875 312.964844 M 668.75 312.921875 C 668.753906 312.914062 668.757812 312.910156 668.761719 312.90625 C 668.757812 312.910156 668.753906 312.914062 668.75 312.921875 M 668.78125 312.875 C 668.789062 312.871094 668.789062 312.863281 668.796875 312.855469 C 668.789062 312.863281 668.785156 312.871094 668.78125 312.875 M 668.808594 312.839844 C 668.816406 312.832031 668.824219 312.820312 668.828125 312.808594 C 668.824219 312.820312 668.8125 312.832031 668.808594 312.839844 M 668.839844 312.796875 C 668.847656 312.789062 668.851562 312.777344 668.859375 312.769531 C 668.851562 312.777344 668.847656 312.789062 668.839844 312.796875 M 668.871094 312.753906 C 668.878906 312.746094 668.882812 312.738281 668.886719 312.730469 C 668.882812 312.738281 668.875 312.746094 668.871094 312.753906 M 668.898438 312.714844 C 668.90625 312.703125 668.914062 312.695312 668.921875 312.683594 C 668.914062 312.695312 668.90625 312.703125 668.898438 312.714844 M 668.933594 312.671875 C 668.9375 312.660156 668.945312 312.652344 668.953125 312.644531 C 668.945312 312.652344 668.9375 312.660156 668.933594 312.671875 M 668.964844 312.625 C 668.972656 312.617188 668.976562 312.609375 668.984375 312.597656 C 668.976562 312.605469 668.96875 312.617188 668.964844 312.625 M 668.992188 312.589844 C 669 312.578125 669.007812 312.566406 669.015625 312.554688 C 669.007812 312.566406 669 312.578125 668.992188 312.589844 M 670.375 312.5625 C 670.367188 312.554688 670.363281 312.546875 670.355469 312.539062 C 670.363281 312.546875 670.367188 312.554688 670.375 312.5625 M 669.023438 312.542969 C 669.03125 312.53125 669.039062 312.519531 669.050781 312.507812 C 669.039062 312.519531 669.03125 312.53125 669.023438 312.542969 M 670.347656 312.527344 C 670.339844 312.515625 670.332031 312.503906 670.324219 312.496094 C 670.332031 312.503906 670.339844 312.515625 670.347656 312.527344 M 669.050781 312.503906 C 669.0625 312.492188 669.070312 312.480469 669.078125 312.464844 C 669.070312 312.480469 669.0625 312.492188 669.050781 312.503906 M 670.3125 312.476562 C 670.304688 312.46875 670.300781 312.460938 670.296875 312.453125 C 670.300781 312.460938 670.308594 312.46875 670.3125 312.476562 M 669.082031 312.464844 C 669.089844 312.449219 669.101562 312.4375 669.109375 312.421875 C 669.101562 312.4375 669.089844 312.453125 669.082031 312.464844 M 670.277344 312.429688 C 670.273438 312.425781 670.269531 312.421875 670.265625 312.414062 C 670.273438 312.421875 670.273438 312.421875 670.277344 312.429688 M 669.113281 312.421875 C 669.121094 312.40625 669.132812 312.394531 669.140625 312.378906 C 669.132812 312.394531 669.121094 312.40625 669.113281 312.421875 M 670.242188 312.382812 C 670.242188 312.378906 670.238281 312.375 670.234375 312.371094 C 670.238281 312.375 670.242188 312.382812 670.242188 312.382812 M 669.144531 312.375 C 669.164062 312.347656 669.183594 312.324219 669.199219 312.296875 C 669.183594 312.324219 669.164062 312.351562 669.144531 312.375 M 670.210938 312.339844 C 670.210938 312.335938 670.210938 312.332031 670.207031 312.332031 C 670.210938 312.332031 670.210938 312.335938 670.210938 312.339844 M 670.183594 312.296875 C 670.179688 312.292969 670.179688 312.292969 670.179688 312.289062 C 670.179688 312.292969 670.179688 312.296875 670.183594 312.296875 M 669.207031 312.289062 C 669.214844 312.277344 669.222656 312.265625 669.234375 312.253906 C 669.222656 312.265625 669.214844 312.277344 669.207031 312.289062 M 670.152344 312.253906 C 670.148438 312.25 670.148438 312.25 670.148438 312.246094 C 670.148438 312.25 670.148438 312.25 670.152344 312.253906 M 669.238281 312.246094 C 669.246094 312.234375 669.257812 312.222656 669.265625 312.207031 C 669.253906 312.222656 669.246094 312.234375 669.238281 312.246094 M 669.265625 312.207031 C 669.277344 312.195312 669.285156 312.179688 669.296875 312.167969 C 669.285156 312.179688 669.273438 312.195312 669.265625 312.207031 M 669.296875 312.164062 C 669.304688 312.152344 669.316406 312.140625 669.324219 312.125 C 669.316406 312.140625 669.308594 312.152344 669.296875 312.164062 M 670.058594 312.125 L 670.054688 312.121094 L 670.058594 312.125 M 669.328125 312.121094 C 669.339844 312.105469 669.347656 312.09375 669.355469 312.082031 C 669.347656 312.09375 669.335938 312.109375 669.328125 312.121094 M 669.359375 312.078125 C 669.378906 312.050781 669.398438 312.023438 669.417969 311.996094 C 669.398438 312.023438 669.378906 312.050781 669.359375 312.078125 M 669.417969 311.992188 C 669.429688 311.980469 669.4375 311.96875 669.445312 311.953125 C 669.4375 311.964844 669.429688 311.980469 669.417969 311.992188 M 669.453125 311.945312 C 669.46875 311.921875 669.488281 311.894531 669.507812 311.871094 C 669.488281 311.894531 669.472656 311.917969 669.453125 311.945312 M 669.875 311.867188 L 669.875 311.867188 M 669.511719 311.863281 C 669.519531 311.851562 669.53125 311.839844 669.539062 311.824219 C 669.53125 311.839844 669.519531 311.851562 669.511719 311.863281 M 669.84375 311.824219 C 669.84375 311.824219 669.84375 311.824219 669.84375 311.820312 L 669.84375 311.824219 M 669.542969 311.820312 C 669.550781 311.808594 669.5625 311.796875 669.570312 311.78125 C 669.5625 311.796875 669.550781 311.808594 669.542969 311.820312 M 669.574219 311.777344 C 669.582031 311.765625 669.589844 311.75 669.597656 311.738281 C 669.589844 311.75 669.582031 311.761719 669.574219 311.777344 M 669.601562 311.734375 C 669.609375 311.722656 669.621094 311.710938 669.628906 311.699219 C 669.621094 311.710938 669.609375 311.722656 669.601562 311.734375 M 669.753906 311.695312 C 669.753906 311.695312 669.753906 311.691406 669.75 311.691406 C 669.753906 311.695312 669.753906 311.695312 669.753906 311.695312 M 669.632812 311.691406 C 669.644531 311.675781 669.652344 311.667969 669.660156 311.652344 C 669.652344 311.667969 669.644531 311.675781 669.632812 311.691406 M 669.722656 311.652344 C 669.722656 311.652344 669.722656 311.648438 669.722656 311.648438 C 669.722656 311.648438 669.722656 311.648438 669.722656 311.652344 M 669.664062 311.648438 C 669.671875 311.632812 669.683594 311.621094 669.691406 311.609375 C 669.683594 311.621094 669.671875 311.632812 669.664062 311.648438 " fill-opacity="1" fill-rule="nonzero"/></g><g clip-path="url(#826790368f)"><path fill="#348e9c" d="M 639.769531 498.308594 C 610.953125 486.515625 590.652344 458.203125 590.652344 425.144531 C 590.652344 373.925781 643.765625 346.808594 668.53125 313.214844 C 658.210938 327.21875 642.964844 340.097656 628.691406 354.0625 C 639.300781 368.4375 655.09375 381.628906 669.6875 396.03125 C 650.199219 415.265625 632.851562 436.664062 632.851562 465.9375 C 632.851562 477.472656 635.328125 488.429688 639.769531 498.308594 M 668.539062 313.207031 C 668.546875 313.195312 668.558594 313.179688 668.566406 313.167969 C 668.558594 313.179688 668.546875 313.195312 668.539062 313.207031 M 668.574219 313.160156 C 668.585938 313.144531 668.597656 313.128906 668.609375 313.113281 C 668.597656 313.128906 668.585938 313.144531 668.574219 313.160156 M 668.609375 313.113281 C 668.613281 313.105469 668.617188 313.101562 668.625 313.09375 C 668.621094 313.097656 668.613281 313.105469 668.609375 313.113281 M 668.632812 313.078125 C 668.640625 313.066406 668.648438 313.058594 668.660156 313.046875 C 668.648438 313.058594 668.640625 313.066406 668.632812 313.078125 M 668.667969 313.035156 C 668.675781 313.023438 668.683594 313.007812 668.691406 313 C 668.683594 313.011719 668.675781 313.019531 668.667969 313.035156 M 668.699219 312.988281 C 668.707031 312.980469 668.710938 312.972656 668.71875 312.964844 C 668.710938 312.972656 668.707031 312.980469 668.699219 312.988281 M 668.726562 312.953125 C 668.734375 312.945312 668.742188 312.929688 668.75 312.921875 C 668.742188 312.929688 668.734375 312.945312 668.726562 312.953125 M 668.761719 312.90625 C 668.769531 312.894531 668.773438 312.886719 668.78125 312.875 C 668.773438 312.886719 668.769531 312.894531 668.761719 312.90625 M 668.796875 312.855469 C 668.800781 312.851562 668.804688 312.847656 668.808594 312.839844 C 668.804688 312.847656 668.800781 312.851562 668.796875 312.855469 M 668.828125 312.808594 C 668.835938 312.804688 668.835938 312.804688 668.839844 312.796875 C 668.835938 312.800781 668.832031 312.808594 668.828125 312.808594 M 668.859375 312.769531 C 668.863281 312.765625 668.867188 312.757812 668.871094 312.753906 C 668.867188 312.761719 668.863281 312.765625 668.859375 312.769531 M 668.886719 312.730469 C 668.894531 312.722656 668.894531 312.71875 668.898438 312.714844 C 668.894531 312.71875 668.890625 312.726562 668.886719 312.730469 M 668.921875 312.683594 C 668.925781 312.679688 668.929688 312.671875 668.933594 312.671875 C 668.929688 312.671875 668.925781 312.679688 668.921875 312.683594 M 668.953125 312.644531 C 668.957031 312.636719 668.960938 312.632812 668.964844 312.625 C 668.960938 312.632812 668.957031 312.636719 668.953125 312.644531 M 668.984375 312.597656 C 668.988281 312.59375 668.988281 312.59375 668.992188 312.589844 C 668.988281 312.589844 668.984375 312.597656 668.984375 312.597656 M 670.375 312.566406 L 670.375 312.5625 C 670.375 312.5625 670.375 312.5625 670.375 312.566406 M 669.015625 312.554688 C 669.019531 312.550781 669.019531 312.546875 669.023438 312.542969 C 669.019531 312.546875 669.019531 312.550781 669.015625 312.554688 M 670.355469 312.539062 C 670.351562 312.535156 670.347656 312.53125 670.347656 312.527344 C 670.347656 312.53125 670.351562 312.535156 670.355469 312.539062 M 669.050781 312.507812 L 669.050781 312.503906 C 669.050781 312.507812 669.050781 312.507812 669.050781 312.507812 M 670.324219 312.496094 C 670.320312 312.488281 670.316406 312.480469 670.3125 312.476562 C 670.316406 312.480469 670.320312 312.488281 670.324219 312.496094 M 669.078125 312.464844 C 669.082031 312.464844 669.078125 312.464844 669.082031 312.464844 C 669.082031 312.464844 669.078125 312.464844 669.078125 312.464844 M 670.296875 312.453125 C 670.289062 312.445312 670.285156 312.4375 670.277344 312.429688 C 670.285156 312.4375 670.289062 312.445312 670.296875 312.453125 M 669.109375 312.421875 C 669.113281 312.421875 669.113281 312.421875 669.113281 312.421875 C 669.113281 312.421875 669.113281 312.421875 669.109375 312.421875 M 670.265625 312.414062 C 670.257812 312.40625 670.253906 312.394531 670.242188 312.382812 C 670.253906 312.394531 670.257812 312.40625 670.265625 312.414062 M 669.140625 312.378906 C 669.144531 312.378906 669.144531 312.378906 669.144531 312.375 C 669.144531 312.378906 669.144531 312.378906 669.140625 312.378906 M 670.234375 312.371094 C 670.226562 312.359375 670.222656 312.351562 670.210938 312.339844 C 670.21875 312.347656 670.230469 312.363281 670.234375 312.371094 M 670.207031 312.332031 C 670.199219 312.320312 670.191406 312.308594 670.183594 312.296875 C 670.191406 312.308594 670.199219 312.320312 670.207031 312.332031 M 669.199219 312.296875 C 669.203125 312.296875 669.207031 312.292969 669.207031 312.289062 C 669.203125 312.292969 669.203125 312.296875 669.199219 312.296875 M 670.179688 312.289062 C 670.167969 312.277344 670.160156 312.265625 670.152344 312.253906 C 670.160156 312.265625 670.167969 312.277344 670.179688 312.289062 M 669.234375 312.253906 C 669.234375 312.25 669.234375 312.25 669.238281 312.246094 C 669.234375 312.25 669.234375 312.25 669.234375 312.253906 M 670.148438 312.246094 C 670.117188 312.207031 670.085938 312.164062 670.058594 312.125 C 670.085938 312.164062 670.117188 312.207031 670.148438 312.246094 M 669.265625 312.207031 L 669.265625 312.207031 M 669.296875 312.167969 L 669.296875 312.164062 L 669.296875 312.167969 M 669.324219 312.125 C 669.324219 312.125 669.328125 312.121094 669.328125 312.121094 C 669.328125 312.121094 669.324219 312.125 669.324219 312.125 M 670.054688 312.121094 C 670.023438 312.078125 669.996094 312.039062 669.964844 311.992188 C 669.996094 312.039062 670.023438 312.078125 670.054688 312.121094 M 669.355469 312.082031 L 669.359375 312.078125 C 669.359375 312.078125 669.359375 312.082031 669.355469 312.082031 M 669.417969 311.996094 C 669.417969 311.992188 669.417969 311.996094 669.417969 311.992188 C 669.417969 311.992188 669.417969 311.996094 669.417969 311.996094 M 669.964844 311.992188 C 669.933594 311.953125 669.902344 311.90625 669.875 311.867188 C 669.902344 311.910156 669.933594 311.949219 669.964844 311.992188 M 669.445312 311.953125 C 669.449219 311.953125 669.449219 311.949219 669.453125 311.945312 C 669.449219 311.949219 669.449219 311.953125 669.445312 311.953125 M 669.507812 311.871094 L 669.511719 311.863281 C 669.511719 311.867188 669.507812 311.867188 669.507812 311.871094 M 669.875 311.867188 C 669.863281 311.851562 669.855469 311.839844 669.84375 311.824219 C 669.855469 311.839844 669.863281 311.851562 669.875 311.867188 M 669.539062 311.824219 C 669.539062 311.824219 669.539062 311.824219 669.542969 311.820312 C 669.542969 311.824219 669.539062 311.824219 669.539062 311.824219 M 669.84375 311.820312 C 669.8125 311.78125 669.785156 311.738281 669.753906 311.695312 C 669.785156 311.738281 669.8125 311.78125 669.84375 311.820312 M 669.570312 311.78125 C 669.570312 311.78125 669.574219 311.777344 669.574219 311.777344 C 669.570312 311.777344 669.570312 311.78125 669.570312 311.78125 M 669.597656 311.738281 C 669.601562 311.738281 669.601562 311.738281 669.601562 311.734375 C 669.601562 311.734375 669.597656 311.738281 669.597656 311.738281 M 669.628906 311.699219 C 669.628906 311.695312 669.632812 311.691406 669.632812 311.691406 C 669.632812 311.691406 669.628906 311.695312 669.628906 311.699219 M 669.75 311.691406 C 669.742188 311.679688 669.730469 311.664062 669.722656 311.652344 C 669.730469 311.664062 669.742188 311.679688 669.75 311.691406 M 669.660156 311.652344 C 669.660156 311.652344 669.664062 311.648438 669.664062 311.648438 C 669.664062 311.648438 669.660156 311.652344 669.660156 311.652344 M 669.722656 311.648438 C 669.710938 311.636719 669.699219 311.621094 669.691406 311.609375 C 669.703125 311.621094 669.710938 311.632812 669.722656 311.648438 " fill-opacity="1" fill-rule="nonzero"/></g><g clip-path="url(#5138c75a49)"><path fill="#38adbf" d="M 669.6875 396.03125 C 655.09375 381.628906 639.300781 368.4375 628.691406 354.0625 C 642.964844 340.097656 658.210938 327.21875 668.53125 313.214844 C 668.535156 313.210938 668.535156 313.210938 668.539062 313.207031 C 668.546875 313.195312 668.558594 313.179688 668.566406 313.167969 C 668.570312 313.167969 668.570312 313.164062 668.574219 313.160156 C 668.585938 313.144531 668.597656 313.128906 668.609375 313.113281 C 668.613281 313.105469 668.621094 313.097656 668.625 313.09375 C 668.625 313.089844 668.632812 313.082031 668.632812 313.078125 C 668.640625 313.066406 668.648438 313.058594 668.660156 313.046875 C 668.660156 313.039062 668.664062 313.035156 668.667969 313.035156 C 668.675781 313.019531 668.683594 313.011719 668.691406 313 C 668.695312 312.992188 668.699219 312.992188 668.699219 312.988281 C 668.707031 312.980469 668.710938 312.972656 668.71875 312.964844 C 668.71875 312.960938 668.722656 312.957031 668.726562 312.953125 C 668.734375 312.945312 668.742188 312.929688 668.75 312.921875 C 668.753906 312.914062 668.757812 312.910156 668.761719 312.90625 C 668.769531 312.894531 668.773438 312.886719 668.78125 312.875 C 668.785156 312.871094 668.789062 312.863281 668.796875 312.855469 C 668.800781 312.851562 668.804688 312.847656 668.808594 312.839844 C 668.8125 312.832031 668.824219 312.820312 668.828125 312.808594 C 668.832031 312.808594 668.835938 312.800781 668.839844 312.796875 C 668.847656 312.789062 668.851562 312.777344 668.859375 312.769531 C 668.863281 312.765625 668.867188 312.761719 668.871094 312.753906 C 668.875 312.746094 668.882812 312.738281 668.886719 312.730469 C 668.890625 312.726562 668.894531 312.71875 668.898438 312.714844 C 668.90625 312.703125 668.914062 312.695312 668.921875 312.683594 C 668.925781 312.679688 668.929688 312.671875 668.933594 312.671875 C 668.9375 312.660156 668.945312 312.652344 668.953125 312.644531 C 668.957031 312.636719 668.960938 312.632812 668.964844 312.625 C 668.96875 312.617188 668.976562 312.605469 668.984375 312.597656 C 668.984375 312.597656 668.988281 312.589844 668.992188 312.589844 C 669 312.578125 669.007812 312.566406 669.015625 312.554688 C 669.019531 312.550781 669.019531 312.546875 669.023438 312.542969 C 669.03125 312.53125 669.039062 312.519531 669.050781 312.507812 C 669.050781 312.507812 669.050781 312.507812 669.050781 312.503906 C 669.0625 312.492188 669.070312 312.480469 669.078125 312.464844 C 669.078125 312.464844 669.082031 312.464844 669.082031 312.464844 C 669.089844 312.453125 669.101562 312.4375 669.109375 312.421875 C 669.113281 312.421875 669.113281 312.421875 669.113281 312.421875 C 669.121094 312.40625 669.132812 312.394531 669.140625 312.378906 C 669.144531 312.378906 669.144531 312.378906 669.144531 312.375 C 669.164062 312.351562 669.183594 312.324219 669.199219 312.296875 C 669.203125 312.296875 669.203125 312.292969 669.207031 312.289062 C 669.214844 312.277344 669.222656 312.265625 669.234375 312.253906 C 669.234375 312.25 669.234375 312.25 669.238281 312.246094 C 669.246094 312.234375 669.253906 312.222656 669.265625 312.207031 C 669.273438 312.195312 669.285156 312.179688 669.296875 312.167969 L 669.296875 312.164062 C 669.308594 312.152344 669.316406 312.140625 669.324219 312.125 C 669.324219 312.125 669.328125 312.121094 669.328125 312.121094 C 669.335938 312.109375 669.347656 312.09375 669.355469 312.082031 C 669.359375 312.082031 669.359375 312.078125 669.359375 312.078125 C 669.378906 312.050781 669.398438 312.023438 669.417969 311.996094 C 669.417969 311.996094 669.417969 311.992188 669.417969 311.992188 C 669.429688 311.980469 669.4375 311.964844 669.445312 311.953125 C 669.449219 311.953125 669.449219 311.949219 669.453125 311.945312 C 669.472656 311.917969 669.488281 311.894531 669.507812 311.871094 C 669.507812 311.867188 669.511719 311.867188 669.511719 311.863281 C 669.519531 311.851562 669.53125 311.839844 669.539062 311.824219 C 669.539062 311.824219 669.542969 311.824219 669.542969 311.820312 C 669.550781 311.808594 669.5625 311.796875 669.570312 311.78125 C 669.570312 311.78125 669.570312 311.777344 669.574219 311.777344 C 669.582031 311.761719 669.589844 311.75 669.597656 311.738281 C 669.597656 311.738281 669.601562 311.734375 669.601562 311.734375 C 669.609375 311.722656 669.621094 311.710938 669.628906 311.699219 C 669.628906 311.695312 669.632812 311.691406 669.632812 311.691406 C 669.644531 311.675781 669.652344 311.667969 669.660156 311.652344 C 669.660156 311.652344 669.664062 311.648438 669.664062 311.648438 C 669.671875 311.632812 669.683594 311.621094 669.691406 311.609375 C 669.699219 311.621094 669.710938 311.636719 669.722656 311.648438 C 669.722656 311.648438 669.722656 311.652344 669.722656 311.652344 C 669.730469 311.664062 669.742188 311.679688 669.75 311.691406 C 669.753906 311.691406 669.753906 311.695312 669.753906 311.695312 C 669.785156 311.738281 669.8125 311.78125 669.84375 311.820312 C 669.84375 311.824219 669.84375 311.824219 669.84375 311.824219 C 669.855469 311.839844 669.863281 311.851562 669.875 311.867188 C 669.902344 311.90625 669.933594 311.953125 669.964844 311.992188 C 669.996094 312.039062 670.023438 312.078125 670.054688 312.121094 L 670.058594 312.125 C 670.085938 312.164062 670.117188 312.207031 670.148438 312.246094 C 670.148438 312.25 670.148438 312.25 670.152344 312.253906 C 670.160156 312.265625 670.167969 312.277344 670.179688 312.289062 C 670.179688 312.292969 670.179688 312.292969 670.183594 312.296875 C 670.191406 312.308594 670.199219 312.320312 670.207031 312.332031 C 670.210938 312.332031 670.210938 312.335938 670.210938 312.339844 C 670.222656 312.351562 670.226562 312.359375 670.234375 312.371094 C 670.238281 312.375 670.242188 312.378906 670.242188 312.382812 C 670.253906 312.394531 670.257812 312.40625 670.265625 312.414062 C 670.269531 312.421875 670.273438 312.425781 670.277344 312.429688 C 670.285156 312.4375 670.289062 312.445312 670.296875 312.453125 C 670.300781 312.460938 670.304688 312.46875 670.3125 312.476562 C 670.316406 312.480469 670.320312 312.488281 670.324219 312.496094 C 670.332031 312.503906 670.339844 312.515625 670.347656 312.527344 C 670.347656 312.53125 670.351562 312.535156 670.355469 312.539062 C 670.363281 312.546875 670.367188 312.554688 670.375 312.5625 L 670.375 312.566406 C 680.699219 326.820312 696.191406 339.882812 710.683594 354.0625 C 700.074219 368.4375 684.28125 381.628906 669.6875 396.03125 " fill-opacity="1" fill-rule="nonzero"/></g><g fill="#348e9c" fill-opacity="1"><g transform="translate(419.162457, 468.610816)"><g><path d="M 68.84375 0 L 38.671875 -98.34375 L 37.890625 -98.34375 C 38.984375 -78.332031 39.53125 -64.984375 39.53125 -58.296875 L 39.53125 0 L 15.78125 0 L 15.78125 -125.34375 L 51.953125 -125.34375 L 81.625 -29.5 L 82.140625 -29.5 L 113.609375 -125.34375 L 149.78125 -125.34375 L 149.78125 0 L 125 0 L 125 -59.328125 C 125 -62.128906 125.039062 -65.359375 125.125 -69.015625 C 125.21875 -72.671875 125.609375 -82.390625 126.296875 -98.171875 L 125.515625 -98.171875 L 93.203125 0 Z M 68.84375 0 "/></g></g></g><g fill="#348e9c" fill-opacity="1"><g transform="translate(774.236919, 468.610816)"><g><path d="M 2.65625 36.875 C -3.34375 36.875 -8.570312 36.242188 -13.03125 34.984375 L -13.03125 12.859375 C -8.457031 14.003906 -4.285156 14.578125 -0.515625 14.578125 C 5.316406 14.578125 9.488281 12.757812 12 9.125 C 14.519531 5.5 15.78125 -0.171875 15.78125 -7.890625 L 15.78125 -125.34375 L 42.359375 -125.34375 L 42.359375 -8.0625 C 42.359375 6.570312 39.015625 17.71875 32.328125 25.375 C 25.640625 33.039062 15.75 36.875 2.65625 36.875 Z M 2.65625 36.875 "/></g></g></g><g fill="#348e9c" fill-opacity="1"><g transform="translate(832.363846, 468.610816)"><g><path d="M 15.78125 0 L 15.78125 -125.34375 L 42.359375 -125.34375 L 42.359375 0 Z M 15.78125 0 "/></g></g></g><g fill="#348e9c" fill-opacity="1"><g transform="translate(890.490772, 468.610816)"><g><path d="M 119.78125 -63.875 C 119.78125 -43.238281 113.90625 -27.429688 102.15625 -16.453125 C 90.40625 -5.484375 73.441406 0 51.265625 0 L 15.78125 0 L 15.78125 -125.34375 L 55.125 -125.34375 C 75.59375 -125.34375 91.484375 -119.941406 102.796875 -109.140625 C 114.117188 -98.335938 119.78125 -83.25 119.78125 -63.875 Z M 92.171875 -63.1875 C 92.171875 -90.113281 80.28125 -103.578125 56.5 -103.578125 L 42.359375 -103.578125 L 42.359375 -21.953125 L 53.765625 -21.953125 C 79.367188 -21.953125 92.171875 -35.695312 92.171875 -63.1875 Z M 92.171875 -63.1875 "/></g></g></g></svg>